<svg width="35" height="35" xmlns="http://www.w3.org/2000/svg"><defs><linearGradient x1="50%" y1="0%" x2="50%" y2="100%" id="c"><stop stop-color="#9167F6" offset="0%"/><stop stop-color="#6442FF" offset="100%"/></linearGradient></defs><g fill="none" fill-rule="evenodd"><circle fill="url(#c)" cx="17.5" cy="17.5" r="17.5"/><path fill="#fff" fill-opacity="0.5" d="M11.7594 6.289l.0036-.0115c.1915-.5936.8483-.8511 1.4058-.5608.1073.0588.3047.1625.5677.2935.439.2187.8961.4297 1.346.6153.363.1497.7057.2762 1.0198.3742.4256.1328.7857.209 1.0004.222.4246-.0171 1.013-.1642 1.7048-.4166.6129-.2235 1.2568-.5098 1.8726-.816.2455-.1222.4277-.218.5353-.2768.5496-.289 1.1819.005 1.374.5925.0308.1018.0909.2888.1762.537.225.6547.4838 1.3183.763 1.9162.3084.6606.6147 1.1787.8441 1.4452.221.1993.5523.4192.9719.6477.289.1574.614.3158.967.4733.4645.2072.9526.402 1.4332.578.288.1055.508.1809.6389.2233.5838.1991.8234.8433.5285 1.4012-.0563.1006-.1559.287-.2814.5366-.2097.4172-.4112.8536-.5871 1.286-.1724.4237-.3103.8201-.4053 1.1757-.078.2924-.1251.5503-.1388.6868.0266.4433.183 1.0875.4417 1.8599.2532.7561.5711 1.5448.8844 2.2495.0549.1235.095.2113.1196.2642.247.5477-.049 1.161-.6208 1.3568a12.614 12.614 0 0 0-.38.1288c-.6867.2426-1.4021.537-2.0423.8658-.6409.3292-1.1384.661-1.4511.984-.1844.1796-.391.47-.605.8494-.1626.288-.3253.6195-.4857.9841-.1861.4233-.3592.8677-.514 1.3046a16.1163 16.1163 0 0 0-.1957.5819c-.1903.5791-.8296.8459-1.3879.5816-.105-.0529-.2998-.1462-.5609-.2633-.436-.1958-.8924-.383-1.345-.545-.4296-.154-.833-.2767-1.1978-.361-.3782-.0875-.704-.131-.9748-.1272-.4228-.0023-1.0313.1285-1.7554.3676-.682.2251-1.3944.5197-2.0483.8243a14.5473 14.5473 0 0 0-.3456.1656c-.563.2702-1.195-.0216-1.3657-.6464-.0241-.101-.0739-.2881-.148-.535-.181-.6023-.4028-1.2039-.66-1.7358-.273-.5641-.563-.9981-.8951-1.302-.1979-.219-.5449-.4715-1.0088-.7355-.2965-.1688-.6336-.3385-1.0018-.5067-.4532-.207-.929-.4008-1.3968-.5755a17.9503 17.9503 0 0 0-.6221-.2212c-.5854-.2031-.8196-.8623-.5308-1.4116.0587-.1061.1623-.3012.2932-.5613.2184-.434.4293-.8859.615-1.3306.1499-.3593.2766-.6984.3748-1.009.1381-.4368.2151-.803.2243-1.0252-.0178-.4444-.1663-1.0464-.4212-1.7493-.232-.6397-.5315-1.3108-.8535-1.9522a16.2598 16.2598 0 0 0-.2921-.559c-.2887-.5423-.0298-1.1835.5629-1.3814.1059-.0333.299-.097.554-.1862.6256-.2189 1.258-.465 1.8308-.7245.7294-.3305 1.2857-.6507 1.55-.8877.16-.1711.327-.3966.4965-.6694.2202-.3544.4386-.7781.6509-1.2528.2063-.4612.3953-.944.5623-1.4179.1-.2837.1699-.4997.2056-.6181z" stroke="#FFF" stroke-width="1.2636"/><path d="M21.0672 13.8109c.0822.0649.189.1362.3165.2107a6.215 6.215 0 0 0 .4564.2394c.2154.1028.4425.2001.666.2882.1335.0527.2348.09.303.1141.5798.2183.8125.863.4963 1.4352-.0864.1419-.217.382-.3329.6481-.0774.178-.1348.34-.1663.4734-.0173.0734-.0255.133-.0257.1708.0002.1992.045.4574.1289.7533.1107.3901.2734.7971.4443 1.1589a6.103 6.103 0 0 0 .0773.1582c.262.549-.0184 1.1635-.6288 1.3624a3.6873 3.6873 0 0 0-.1616.0494c-.3175.1032-.6468.2394-.929.4013-.2352.1349-.412.2746-.5124.4038l-.1248.1213c-.0312.023-.0712.0633-.1158.12-.1011.1287-.2062.3159-.3058.5407a5.3605 5.3605 0 0 0-.2619.7293c-.179.5744-.802.821-1.3734.5784-.1646-.0788-.4453-.1951-.7623-.2935-.2344-.0728-.4491-.1215-.629-.1403-.1044-.011-.1916-.011-.2567-.0019l-.1636.0018c-.1591-.0191-.4006.015-.6894.0996-.3109.091-.6378.227-.9353.3745a5.1424 5.1424 0 0 0-.1735.0897c-.5689.288-1.184-.0503-1.342-.6796a4.262 4.262 0 0 0-.0635-.2622c-.0706-.2618-.1595-.5197-.2637-.7418-.0994-.2116-.2039-.3698-.3348-.4927-.05-.0542-.1236-.1158-.2177-.1808-.158-.109-.3617-.2195-.5968-.3265a7.575 7.575 0 0 0-.6168-.2467 6.5002 6.5002 0 0 0-.2823-.093c-.5784-.1913-.8366-.8211-.5594-1.3823.0262-.0504.0732-.1435.1331-.2669.1-.2059.1974-.4177.284-.622a8.5012 8.5012 0 0 0 .1155-.2856c.0716-.1875.1225-.3464.1487-.4619-.0268-.172-.0808-.3731-.159-.5944-.1182-.335-.2807-.6883-.4599-1.025a7.1291 7.1291 0 0 0-.1746-.3116c-.311-.552-.0426-1.198.5905-1.4036a3.982 3.982 0 0 0 .172-.0524c.2995-.0973.6079-.222.8736-.3673.2574-.1407.4417-.285.527-.4064l.067-.0955.0966-.0652c.0432-.0292.093-.074.1469-.1335.1291-.1431.263-.3514.3906-.6019.148-.2905.256-.5674.3106-.7358l.008-.0231c.2114-.5753.8634-.7752 1.4206-.4815.1346.0804.3692.2023.6354.3072.2448.0966.462.154.6205.1625.048.0026.0853.0003.1103-.005l.116-.0242.1168.0192c.1592.0263.3787.0046.636-.0643.3034-.0812.6215-.2158.9105-.3679a4.204 4.204 0 0 0 .1832-.1018c.5543-.3001 1.203-.0354 1.3913.595.0153.058.0462.1664.091.3087.0937.2984.202.595.32.8583.1076.2404.2158.4348.3143.5647z" stroke="#FFF" stroke-width="1.2636"/><path fill="#FFF" d="M16.9085 17.2066L12.326 6.1435l.3328-.1379 4.582 11.0618L21.774 6.123l.3328.1379-4.5341 10.9462 11.0814-4.5901.1376.3323L17.711 17.539 28.84 22.149l-.1377.3322-11.1285-4.6095 4.5825 11.063-.3328.1379-4.5827-11.0637-4.6314 11.181-.3328-.138 4.631-11.18L5.6615 22.53l-.1376-.3323 11.2471-4.6587-11.1989-4.6387.1376-.3323z"/></g></svg>