<svg width="22" height="28" xmlns="http://www.w3.org/2000/svg"><path d="M6.401 7.852h-.01v4.296h9.217V7.852h-.01A4.6 4.6 0 0 0 11 2.963a4.6 4.6 0 0 0-4.598 4.889zm-3.13 0C3.27 3.515 6.797 0 11.148 0c4.35 0 7.58 3.515 7.58 7.852v4.296h1.733c.535 0 .729.056.924.16.196.105.35.258.454.454.104.196.16.39.16.924v12.776c0 .535-.056.729-.16.924a1.09 1.09 0 0 1-.454.454c-.195.104-.39.16-.924.16H1.538c-.535 0-.729-.056-.924-.16a1.09 1.09 0 0 1-.454-.454c-.104-.195-.16-.39-.16-.924V13.686c0-.534.056-.728.16-.924a1.09 1.09 0 0 1 .454-.454c.195-.104.39-.16.924-.16H3.27V7.852z" fill="#7F7F7F"/></svg>