<svg width="15" height="22" xmlns="http://www.w3.org/2000/svg"><path d="M6.044 17.579h2.682a.95.95 0 0 1 .95.95v2.521a.95.95 0 0 1-.95.95H6.044a.95.95 0 0 1-.95-.95v-2.521a.95.95 0 0 1 .95-.95zM.005 6.902c.133-1.11.302-1.926.508-2.448a7.053 7.053 0 0 1 1.5-2.347A6.76 6.76 0 0 1 4.337.557C5.245.186 6.26 0 7.382 0c1.448 0 2.656.196 3.625.587.97.391 1.75.878 2.34 1.46.592.581 1.016 1.208 1.27 1.88.256.673.383 1.3.383 1.881 0 .964-.127 1.756-.382 2.378a5.842 5.842 0 0 1-.949 1.595 6.291 6.291 0 0 1-1.254 1.129c-.46.31-.893.622-1.3.933-.409.31-.77.667-1.087 1.068-.316.401-.515.903-.596 1.505v.194a.95.95 0 0 1-.95.95h-2.23a.95.95 0 0 1-.95-.95v-.405c.06-.863.229-1.585.504-2.167a6.206 6.206 0 0 1 .964-1.49A7.651 7.651 0 0 1 7.933 9.48c.407-.3.785-.602 1.132-.903.346-.3.627-.632.84-.993.215-.361.312-.812.292-1.354 0-.923-.23-1.605-.689-2.047-.459-.441-1.096-.662-1.912-.662-.55 0-1.025.106-1.423.316-.397.21-.724.492-.979.843a3.628 3.628 0 0 0-.566 1.234c-.063.244-.114.606-.153 1.083A.475.475 0 0 1 4 7.434H.477a.475.475 0 0 1-.472-.532z"/></svg>